<svg xmlns="http://www.w3.org/2000/svg" xmlns:xlink="http://www.w3.org/1999/xlink" height="280.322px" width="280.322px" version="1.1" id="Layer_1" viewBox="0 0 280.322 280.322" xml:space="preserve">
<g>
	<g>
		<path style="fill: rgb(217, 254, 212);" d="M255.974,63.714H42.833c-13.421,0-24.349,10.928-24.349,24.349v121.141    c0,13.421,10.928,24.349,24.349,24.349h213.14c13.421,0,24.349-10.928,24.349-24.349V88.063    C280.323,74.642,269.394,63.714,255.974,63.714z"/>
		<g>
			<g id="XMLID_9_">
				<g>
					<g>
						<path style="fill: rgb(96, 145, 94);" d="M247.65,71.117v121.141c0,5.587-4.574,10.161-10.161,10.161h-34.017l-3.889-25.472        c-0.52-3.478-3.506-6.026-7.012-6.026H64.884c-3.506,0-6.491,2.547-7.012,6.026l-3.917,25.472H24.349        c-5.587,0-10.161-4.574-10.161-10.161V71.117c0-5.587,4.574-10.161,10.161-10.161h213.14        C243.076,60.956,247.65,65.53,247.65,71.117z M239.05,77.416c0-4.218-3.424-7.641-7.614-7.641        c-4.218,0-7.642,3.424-7.642,7.642c0,4.218,3.424,7.614,7.642,7.614C235.627,85.031,239.05,81.634,239.05,77.416z         M217.495,131.537c0-15.584-12.681-28.265-28.265-28.265H70.992c-15.584,0-28.265,12.681-28.265,28.265        c0,15.557,12.681,28.238,28.265,28.238H189.23C204.814,159.775,217.495,147.094,217.495,131.537z M38.509,77.416        c0-4.218-3.396-7.641-7.614-7.641s-7.642,3.424-7.642,7.642c0,4.218,3.424,7.614,7.642,7.614S38.509,81.634,38.509,77.416z"/>
					</g>
					<g>
						<path style="fill: rgb(58, 94, 54);" d="M237.489,46.768H24.349C10.901,46.768,0,57.669,0,71.117v121.141        c0,13.448,10.901,24.349,24.349,24.349h60.779c3.917,0,7.094-3.177,7.094-7.094l0,0c0-3.917-3.177-7.094-7.094-7.094H68.335        l2.657-17.31h115.472l2.657,17.31h-48.128c-3.917,0-7.094,3.177-7.094,7.094l0,0c0,3.917,3.177,7.094,7.094,7.094h96.497        c13.448,0,24.349-10.901,24.349-24.349V71.117C261.838,57.669,250.937,46.768,237.489,46.768z M247.65,192.258        c0,5.587-4.574,10.161-10.161,10.161h-34.017l-3.889-25.472c-0.52-3.478-3.506-6.026-7.012-6.026H64.884        c-3.506,0-6.491,2.547-7.012,6.026l-3.917,25.472H24.349c-5.587,0-10.161-4.574-10.161-10.161V71.117        c0-5.587,4.574-10.161,10.161-10.161h213.14c5.587,0,10.161,4.574,10.161,10.161V192.258z"/>
						<path style="fill: rgb(58, 94, 54);" d="M122.554,202.419h-18.986c-3.917,0-7.094,3.177-7.094,7.094l0,0        c0,3.917,3.177,7.094,7.094,7.094h18.986c3.917,0,7.094-3.177,7.094-7.094l0,0        C129.645,205.596,126.471,202.419,122.554,202.419z"/>
					</g>
					<g>
						<path style="fill: rgb(58, 94, 54);" d="M189.23,103.272c15.584,0,28.265,12.681,28.265,28.265c0,15.557-12.681,28.238-28.265,28.238        H70.992c-15.584,0-28.265-12.681-28.265-28.238c0-15.584,12.681-28.265,28.265-28.265        C70.992,103.272,189.23,103.272,189.23,103.272z M203.308,131.537c0-7.778-6.327-14.078-14.078-14.078        s-14.051,6.299-14.051,14.078c0,7.751,6.299,14.051,14.051,14.051C196.981,145.587,203.308,139.288,203.308,131.537z         M164.744,117.459H95.478c2.383,4.163,3.78,8.956,3.78,14.078s-1.397,9.915-3.78,14.051h69.267        c-2.383-4.136-3.78-8.929-3.78-14.051S162.361,121.622,164.744,117.459z M85.07,131.537c0-7.778-6.327-14.078-14.078-14.078        s-14.05,6.299-14.05,14.078c0,7.751,6.299,14.051,14.051,14.051S85.07,139.288,85.07,131.537z"/>
					</g>
				</g>
			</g>
		</g>
	</g>
</g>
</svg>